<svg xmlns="http://www.w3.org/2000/svg"
  xmlns:xlink="http://www.w3.org/1999/xlink"
  xmlns:svgjs="http://svgjs.dev/svgjs" version="1.1" viewBox="125 193.83 750 212.34">
  <g>
    <rect width="333.3333333333333" height="333.3333333333333" rx="13.333333333333334" ry="13.333333333333334" y="218.45242192400036" fill="#ca424f" transform="matrix(0.6370070232516932,0,0,0.6370070232516932,0,54.67644476655869)" x="196.230224609375"></rect>
    <path d="M440.9581222972689 310.11909326750265L468.5091436587094 310.11909326750265L434.8356731058377 460.11909845756713L393.50914106367713 460.11909845756713L364.42750740437884 350.21263206972225L361.36628280866324 350.21263206972225L332.284649149365 460.11909845756713L290.95811710720443 460.11909845756713L257.28464655433277 310.11909326750265L284.83566791577323 310.11909326750265L309.32546468149803 439.2857644033915L315.44791387292923 439.2857644033915L350.65199672365867 310.11909326750265L375.1417934893835 310.11909326750265L410.3458763401129 439.2857644033915L416.4683255315441 439.2857644033915L440.9581222972689 310.11909326750265Z " fill="#ffffff" transform="matrix(0.6370070232516932,0,0,0.6370070232516932,0,54.67644476655869)"></path>
    <path d="M796.5703659496126 310.11909326750265L824.121387311053 310.11909326750265L790.4479167581815 460.11909845756713L749.1213847160208 460.11909845756713L720.0397510567226 350.21263206972225L716.9785264610069 350.21263206972225L687.8968928017088 460.11909845756713L646.5703607595481 460.11909845756713L612.8968902066765 310.11909326750265L640.447911568117 310.11909326750265L664.9377083338418 439.2857644033915L671.0601575252729 439.2857644033915L706.2642403760024 310.11909326750265L730.7540371417272 310.11909326750265L765.9581199924567 439.2857644033915L772.0805691838877 439.2857644033915L796.5703659496126 310.11909326750265ZM958.8152695225394 374.4048097775303L958.8152695225394 460.11909845756713L937.3866973525303 460.11909845756713L937.3866973525303 444.51535642107234L919.0193497782366 460.11909845756713L873.1009808425026 460.11909845756713Q864.2149261132727 460.11909845756713 857.96492589702 453.82658123304066Q851.6724086724935 447.57658101678794 851.6724086724935 438.69052628755793L851.6724086724935 438.69052628755793L851.6724086724935 417.2619541175487Q851.6724086724935 408.37589938831866 857.96492589702 402.125899172066Q864.2149261132727 395.8333819475395 873.1009808425026 395.8333819475395L873.1009808425026 395.8333819475395L934.3254727568146 395.8333819475395L915.958125182521 413.90311046391633L873.1009808425026 413.90311046391633L873.1009808425026 441.75175088327353L937.3866973525303 441.75175088327353L937.3866973525303 371.34358518181466L851.6724086724935 371.34358518181466L870.039756246787 352.97623760752106L937.3866973525303 352.97623760752106Q946.2727520817602 352.97623760752106 952.5227522980131 359.2687548320476Q958.8152695225394 365.51875504830025 958.8152695225394 374.4048097775303L958.8152695225394 374.4048097775303ZM1087.3867025425948 374.4048097775303L1087.3867025425948 395.8333819475395L1065.9581303725856 395.8333819475395L1065.9581303725856 371.34358518181466L1023.1009860325671 371.34358518181466L1023.1009860325671 460.11909845756713L1001.672413862558 460.11909845756713L1001.672413862558 352.97623760752106L1023.1009860325671 352.97623760752106L1023.1009860325671 368.28236058609906L1038.4071090111452 352.97623760752106L1065.9581303725856 352.97623760752106Q1074.8441851018156 352.97623760752106 1081.0941853180682 359.2687548320476Q1087.3867025425948 365.51875504830025 1087.3867025425948 374.4048097775303L1087.3867025425948 374.4048097775303ZM1223.6111970519391 374.4048097775303L1223.6111970519391 460.11909845756713L1202.1826248819298 460.11909845756713L1202.1826248819298 444.51535642107234L1183.8152773076363 460.11909845756713L1137.896908371902 460.11909845756713Q1129.0108536426721 460.11909845756713 1122.7608534264195 453.82658123304066Q1116.468336201893 447.57658101678794 1116.468336201893 438.69052628755793L1116.468336201893 438.69052628755793L1116.468336201893 417.2619541175487Q1116.468336201893 408.37589938831866 1122.7608534264195 402.125899172066Q1129.0108536426721 395.8333819475395 1137.896908371902 395.8333819475395L1137.896908371902 395.8333819475395L1199.1214002862143 395.8333819475395L1180.7540527119208 413.90311046391633L1137.896908371902 413.90311046391633L1137.896908371902 441.75175088327353L1202.1826248819298 441.75175088327353L1202.1826248819298 371.34358518181466L1116.468336201893 371.34358518181466L1134.8356837761867 352.97623760752106L1202.1826248819298 352.97623760752106Q1211.06867961116 352.97623760752106 1217.3186798274126 359.2687548320476Q1223.6111970519391 365.51875504830025 1223.6111970519391 374.4048097775303L1223.6111970519391 374.4048097775303ZM1373.6112022420034 374.4048097775303L1373.6112022420034 460.11909845756713L1352.1826300719945 460.11909845756713L1352.1826300719945 371.34358518181466L1287.8969135619668 371.34358518181466L1287.8969135619668 460.11909845756713L1266.4683413919574 460.11909845756713L1266.4683413919574 352.97623760752106L1287.8969135619668 352.97623760752106L1287.8969135619668 368.28236058609906L1303.2030365405446 352.97623760752106L1352.1826300719945 352.97623760752106Q1361.0686848012242 352.97623760752106 1367.318685017477 359.2687548320476Q1373.6112022420034 365.51875504830025 1373.6112022420034 374.4048097775303L1373.6112022420034 374.4048097775303Z " fill="currentColor" transform="matrix(0.6370070232516932,0,0,0.6370070232516932,0,54.67644476655869)"></path>
  </g>
</svg>
